<?xml version="1.0" encoding="UTF-8"?>
<svg id="Layer_1" data-name="Layer 1" xmlns="http://www.w3.org/2000/svg" viewBox="0 0 1207.89 698.55">
  <defs>
    <style>
      .cls-1 {
        fill: #024e66;
      }

      .cls-1, .cls-2, .cls-3 {
        stroke-width: 0px;
      }

      .cls-2 {
        fill: #666;
      }

      .cls-3 {
        fill: #012f3a;
      }
    </style>
  </defs>
  <g>
    <path class="cls-3" d="M335.03,356.69c0,47.81-21.38,71.72-64.13,71.72s-63.92-23.91-63.92-71.72,21.3-71.72,63.92-71.72,64.13,23.91,64.13,71.72ZM300.14,356.69c0-16.22-1.51-27.24-4.52-33.06-3.87-7.44-12.12-11.15-24.73-11.15s-20.79,3.72-24.52,11.15c-3.01,5.95-4.52,16.97-4.52,33.06s1.5,26.9,4.52,32.85c3.87,7.57,12.04,11.35,24.52,11.35s20.86-3.78,24.73-11.35c3.01-5.95,4.52-16.9,4.52-32.85Z"/>
    <path class="cls-3" d="M436,304.43c0,7.69-3.94,11.53-11.83,11.53-5.02,0-18.94-.2-41.74-.6v25.31h37.65c7.75,0,11.62,3.86,11.62,11.57v2.64c0,7.71-3.87,11.57-11.62,11.57-4.01,0-16.57-.21-37.65-.65v47.4c0,7.29-3.87,10.94-11.61,10.94h-9.24c-8.6,0-12.9-3.64-12.9-10.94v-114.03c0-6.89,4.3-10.33,12.9-10.33h62.6c7.88,0,11.83,3.44,11.83,10.32v5.26Z"/>
    <path class="cls-3" d="M533.9,304.43c0,7.69-3.95,11.53-11.83,11.53-5.02,0-18.94-.2-41.74-.6v25.31h37.66c7.75,0,11.62,3.86,11.62,11.57v2.64c0,7.71-3.87,11.57-11.62,11.57-4.02,0-16.57-.21-37.66-.65v47.4c0,7.29-3.87,10.94-11.61,10.94h-9.24c-8.6,0-12.9-3.64-12.9-10.94v-114.03c0-6.89,4.3-10.33,12.91-10.33h62.59c7.89,0,11.83,3.44,11.83,10.32v5.26Z"/>
    <path class="cls-1" d="M649.4,382.84c0,14.98-4.3,25.71-12.9,32.19-7.74,6.07-19.79,9.11-36.13,9.11h-41.29c-8.6,0-12.9-3.64-12.9-10.94v-114.03c0-6.89,4.3-10.33,12.89-10.33h27.94c11.89,0,20.06.22,24.5.67,20.34,1.89,30.52,13.77,30.52,35.63,0,11.07-3.06,19.5-9.18,25.31,11.03,5.53,16.55,16.33,16.55,32.39ZM609.56,327.33c0-7.26-2.07-11.29-6.23-12.1-.72-.14-3.94-.2-9.66-.2s-10.02.07-13.75.2v29.45h9.02c10.02,0,15.96-1.28,17.82-3.83,1.86-2.55,2.79-7.06,2.79-13.51ZM615.8,382.79c0-6.61-2.72-10.72-8.16-12.34-2.01-.54-7.81-.81-17.4-.81h-10.31v28.11c2.72.14,7.09.2,13.1.2s10.96-.34,14.4-1.01c5.58-1.08,8.38-5.8,8.38-14.16Z"/>
    <path class="cls-1" d="M750.16,413.82c0,6.88-3.87,10.32-11.61,10.32h-66.89c-8.61,0-12.91-3.64-12.91-10.94v-114.03c0-6.89,4.3-10.33,12.91-10.33h66.89c7.74,0,11.61,3.44,11.61,10.32v5.26c0,7.69-3.87,11.53-11.62,11.53-5.31,0-20.66-.2-46.05-.6v25.93l41.1-.62c7.89,0,11.84,3.86,11.84,11.57v2.64c0,7.71-3.95,11.57-11.84,11.57-4.59,0-18.29-.21-41.1-.65v31.8l46.05-.57c7.75,0,11.62,3.84,11.62,11.53v5.26Z"/>
    <path class="cls-1" d="M888.05,416.04c0,5.4-3.35,8.1-10.05,8.1h-11.76c-6.13,0-10.26-2.79-12.4-8.38l-6.8-16.62c-6.9.02-15.52.03-25.87.03-11.79,0-20.41,0-25.87-.01l-5.74,15.28c-2.44,6.48-6.89,9.71-13.34,9.71h-9.9c-7.32,0-10.98-2.36-10.98-7.09,0-1.21.64-3.44,1.94-6.68l44.31-112.03c2.73-6.86,7.74-10.29,15.06-10.29h8.82c7.31,0,12.33,3.37,15.06,10.09l46.67,114.05c.58,1.35.86,2.64.86,3.85ZM837.51,374.99l-16.53-44.56-16.3,44.67c.43-.07,1.42-.1,2.99-.1h4.69c5.97-.13,11.66-.13,17.06,0,6.54,0,9.25,0,8.1,0Z"/>
    <path class="cls-1" d="M976.32,304.19c0,7.58-3.87,11.36-11.61,11.36h-29.45v97.64c0,7.29-3.87,10.94-11.61,10.94h-9.24c-8.6,0-12.9-3.64-12.9-10.94v-97.64h-29.5c-7.75,0-11.63-3.79-11.63-11.36v-5.18c0-6.78,3.87-10.17,11.62-10.17h92.71c7.74,0,11.62,3.39,11.62,10.17v5.18Z"/>
  </g>
  <g>
    <path class="cls-2" d="M413.46,481.56c-.82,0-1.58-.05-2.3-.16-.72-.11-1.37-.26-1.94-.46-.57-.19-1.09-.39-1.55-.62l.56-2.38c.92.56,1.8.95,2.63,1.17.83.23,1.72.35,2.66.35.86,0,1.64-.12,2.35-.35.7-.24,1.3-.58,1.81-1.02.51-.45.89-.98,1.17-1.6.27-.63.41-1.32.41-2.1,0-.58-.07-1.11-.22-1.57-.15-.47-.39-.91-.72-1.33-.33-.42-.78-.83-1.33-1.23-.56-.41-1.26-.84-2.09-1.3l-1.89-1.04c-.93-.51-1.73-1.02-2.39-1.54-.67-.52-1.21-1.07-1.63-1.65-.42-.58-.73-1.19-.93-1.83-.2-.64-.3-1.34-.3-2.09,0-1.02.19-1.92.57-2.73.38-.8.93-1.48,1.64-2.03.72-.55,1.59-.98,2.62-1.27,1.03-.3,2.2-.45,3.51-.45.99,0,1.99.1,3,.28,1.01.19,1.9.45,2.69.79l-.55,2.27c-.92-.44-1.77-.76-2.56-.98-.78-.22-1.62-.33-2.52-.33-.79,0-1.51.1-2.16.31-.65.2-1.21.49-1.67.87-.46.37-.82.82-1.08,1.35-.25.53-.38,1.11-.38,1.75,0,.68.12,1.27.38,1.78.26.51.59.97,1,1.38.41.4.88.77,1.39,1.09.51.32,1.03.63,1.56.92l1.89,1.09c1.4.81,2.46,1.55,3.21,2.22.75.67,1.29,1.43,1.66,2.28.35.86.54,1.75.54,2.68,0,1.17-.21,2.22-.62,3.14-.41.92-1.01,1.7-1.78,2.34-.78.64-1.72,1.12-2.84,1.46-1.11.34-2.38.51-3.8.51Z"/>
    <path class="cls-2" d="M440.23,481.53c-1.8,0-3.4-.31-4.83-.93-1.42-.63-2.63-1.53-3.62-2.71-.99-1.18-1.74-2.62-2.27-4.31-.52-1.7-.78-3.62-.78-5.76s.27-3.96.83-5.63c.55-1.67,1.34-3.08,2.37-4.25,1.03-1.16,2.29-2.05,3.77-2.67,1.48-.62,3.14-.93,4.98-.93s3.35.31,4.74.92c1.39.61,2.57,1.5,3.53,2.66.97,1.16,1.7,2.58,2.21,4.27.51,1.68.76,3.59.76,5.73s-.26,4.12-.77,5.8c-.52,1.69-1.27,3.11-2.26,4.27-.99,1.15-2.22,2.03-3.67,2.63-1.45.6-3.11.9-4.98.9ZM440.58,479.36c1.26,0,2.39-.25,3.38-.75.99-.5,1.83-1.23,2.53-2.2.69-.96,1.22-2.14,1.59-3.52.36-1.39.54-2.97.54-4.74s-.19-3.46-.55-4.89c-.37-1.45-.9-2.67-1.59-3.67-.69-1-1.53-1.77-2.53-2.3-1-.53-2.11-.8-3.36-.8s-2.47.27-3.52.8c-1.05.53-1.94,1.29-2.67,2.27-.73.99-1.3,2.17-1.7,3.54-.4,1.39-.6,2.93-.6,4.64s.2,3.34.6,4.76c.4,1.43.97,2.65,1.71,3.68.74,1.02,1.63,1.81,2.69,2.35,1.05.55,2.21.82,3.5.82Z"/>
    <path class="cls-2" d="M460.09,481.07v-26.29h14.07v2.09h-10.87v9.71h9.62v2.09h-9.62v12.4h-3.2Z"/>
    <path class="cls-2" d="M487.62,481.07v-24.2h-7.27v-2.09h17.66v2.09h-7.18v24.2h-3.2Z"/>
    <path class="cls-2" d="M509.17,481.07l-6.33-26.29h3.23c.91,4.01,1.82,7.99,2.71,11.94.9,3.95,1.78,7.93,2.65,11.94.84-4.01,1.73-8,2.68-11.95.95-3.95,1.93-7.93,2.92-11.93h4.02c2.41,10.45,4.26,18.41,5.55,23.88.53-2.41,2.39-10.37,5.58-23.88h2.76l-6.56,26.29h-4.06c-.48-2.1-.9-3.94-1.26-5.5-.36-1.56-.67-2.91-.93-4.05-.27-1.14-.49-2.1-.67-2.89-.18-.79-.34-1.46-.47-2.01-.12-.55-.23-1.02-.32-1.41-.09-.39-.18-.75-.26-1.1-.08-.35-.16-.71-.23-1.08-.08-.38-.18-.82-.29-1.35-.12-.52-.26-1.15-.42-1.88-.16-.74-.37-1.64-.61-2.72-2.48,10.44-4.41,18.43-5.78,23.98h-3.91Z"/>
    <path class="cls-2" d="M535.33,481.07l8.57-26.29h4.14l8.4,26.29h-3.24l-2.6-8.53h-9.77l-2.6,8.53h-2.91ZM541.4,470.49h8.6l-4.23-13.93-4.36,13.93Z"/>
    <path class="cls-2" d="M562.79,481.07v-26.29h7.82c.77,0,1.55.04,2.35.12.8.08,1.54.29,2.24.63.8.4,1.46.96,1.97,1.68.52.72.86,1.45,1.04,2.2.18.75.26,1.42.26,2,0,1.42-.31,2.66-.95,3.7-.64,1.04-1.43,1.81-2.38,2.3-.95.49-1.88.82-2.81,1.01l7.49,12.65h-3.65l-6.93-12.11h-3.24v12.11h-3.2ZM565.99,466.96h2.28c.9,0,1.77-.09,2.61-.27.84-.18,1.59-.47,2.24-.89.65-.42,1.17-.97,1.56-1.67.39-.69.59-1.55.59-2.58,0-.52-.05-1.01-.16-1.47-.11-.46-.26-.86-.45-1.2-.19-.34-.39-.62-.61-.84-.56-.52-1.22-.86-1.99-1.01-.77-.17-1.7-.24-2.79-.24h-3.27v10.16Z"/>
    <path class="cls-2" d="M585.07,481.07v-26.29h14.15v2.09h-10.95v9.5h10.24v2.01h-10.24v10.6h11.15v2.09h-14.35Z"/>
    <path class="cls-2" d="M622.27,481.56c-.81,0-1.58-.05-2.3-.16-.72-.11-1.37-.26-1.94-.46-.57-.19-1.08-.39-1.55-.62l.57-2.38c.92.56,1.8.95,2.63,1.17.83.23,1.72.35,2.66.35.86,0,1.64-.12,2.35-.35.7-.24,1.3-.58,1.8-1.02.5-.45.9-.98,1.17-1.6.27-.63.41-1.32.41-2.1,0-.58-.08-1.11-.22-1.57-.15-.47-.39-.91-.72-1.33-.33-.42-.78-.83-1.33-1.23-.56-.41-1.26-.84-2.09-1.3l-1.89-1.04c-.93-.51-1.73-1.02-2.39-1.54-.66-.52-1.21-1.07-1.63-1.65-.42-.58-.74-1.19-.94-1.83-.2-.64-.3-1.34-.3-2.09,0-1.02.19-1.92.57-2.73.38-.8.93-1.48,1.64-2.03.72-.55,1.59-.98,2.62-1.27,1.04-.3,2.2-.45,3.51-.45.99,0,1.99.1,3,.28,1,.19,1.9.45,2.69.79l-.54,2.27c-.92-.44-1.78-.76-2.56-.98-.78-.22-1.62-.33-2.52-.33-.79,0-1.51.1-2.16.31-.66.2-1.21.49-1.68.87-.46.37-.82.82-1.07,1.35-.26.53-.38,1.11-.38,1.75,0,.68.12,1.27.38,1.78.25.51.58.97,1,1.38.41.4.87.77,1.39,1.09.51.32,1.03.63,1.55.92l1.89,1.09c1.39.81,2.46,1.55,3.21,2.22.75.67,1.3,1.43,1.65,2.28.36.86.54,1.75.54,2.68,0,1.17-.2,2.22-.62,3.14-.41.92-1.01,1.7-1.78,2.34-.78.64-1.72,1.12-2.83,1.46-1.12.34-2.38.51-3.81.51Z"/>
    <path class="cls-2" d="M647.56,481.53c-1.8,0-3.4-.31-4.83-.93-1.43-.63-2.63-1.53-3.62-2.71-.99-1.18-1.74-2.62-2.27-4.31-.52-1.7-.78-3.62-.78-5.76s.28-3.96.82-5.63c.55-1.67,1.34-3.08,2.37-4.25,1.04-1.16,2.29-2.05,3.77-2.67,1.48-.62,3.14-.93,4.98-.93s3.35.31,4.74.92c1.39.61,2.56,1.5,3.53,2.66.96,1.16,1.7,2.58,2.21,4.27.51,1.68.77,3.59.77,5.73s-.26,4.12-.78,5.8c-.51,1.69-1.27,3.11-2.26,4.27-.99,1.15-2.22,2.03-3.67,2.63-1.45.6-3.11.9-4.98.9ZM647.9,479.36c1.26,0,2.38-.25,3.38-.75,1-.5,1.84-1.23,2.53-2.2.69-.96,1.22-2.14,1.58-3.52.36-1.39.55-2.97.55-4.74s-.19-3.46-.55-4.89c-.37-1.45-.9-2.67-1.59-3.67-.69-1-1.54-1.77-2.53-2.3-.99-.53-2.11-.8-3.36-.8s-2.46.27-3.52.8c-1.05.53-1.94,1.29-2.67,2.27-.74.99-1.3,2.17-1.7,3.54-.4,1.39-.6,2.93-.6,4.64s.2,3.34.6,4.76c.4,1.43.97,2.65,1.71,3.68.74,1.02,1.63,1.81,2.68,2.35,1.05.55,2.22.82,3.5.82Z"/>
    <path class="cls-2" d="M666.67,481.07v-26.29h3.23v24.2h10.99v2.09h-14.23Z"/>
    <path class="cls-2" d="M695,481.53c-1.97,0-3.59-.31-4.85-.93-1.27-.63-2.24-1.6-2.93-2.91-.46-.85-.78-1.85-.97-3.02-.21-1.16-.3-2.6-.3-4.33v-15.56h3.24v15.67c0,1.15.05,2.13.14,2.95.1.82.25,1.56.46,2.23.39,1.21,1.07,2.15,2.05,2.79.97.65,2.18.97,3.6.97.99,0,1.9-.18,2.71-.53.81-.35,1.47-.85,1.98-1.49.41-.53.74-1.18.98-1.94.23-.76.4-1.6.47-2.52.08-.92.12-1.84.12-2.79v-15.35h2.8v15.42c0,1.71-.06,3.09-.19,4.16-.13,1.07-.43,2.04-.89,2.92-.46.88-1.03,1.61-1.72,2.19-.79.7-1.74,1.21-2.86,1.55-1.13.34-2.4.51-3.82.51Z"/>
    <path class="cls-2" d="M718.08,481.07v-24.2h-7.27v-2.09h17.66v2.09h-7.19v24.2h-3.21Z"/>
    <path class="cls-2" d="M734.8,481.07v-26.29h3.2v26.29h-3.2Z"/>
    <path class="cls-2" d="M756.17,481.53c-1.8,0-3.4-.31-4.83-.93-1.43-.63-2.62-1.53-3.62-2.71-.99-1.18-1.74-2.62-2.26-4.31-.52-1.7-.78-3.62-.78-5.76s.28-3.96.83-5.63c.55-1.67,1.35-3.08,2.38-4.25,1.03-1.16,2.29-2.05,3.76-2.67,1.48-.62,3.14-.93,4.98-.93s3.35.31,4.74.92c1.39.61,2.57,1.5,3.52,2.66.97,1.16,1.71,2.58,2.21,4.27.51,1.68.77,3.59.77,5.73s-.26,4.12-.78,5.8c-.51,1.69-1.27,3.11-2.26,4.27-1,1.15-2.22,2.03-3.67,2.63-1.46.6-3.12.9-4.99.9ZM756.51,479.36c1.26,0,2.39-.25,3.38-.75.99-.5,1.83-1.23,2.53-2.2.69-.96,1.21-2.14,1.58-3.52.37-1.39.55-2.97.55-4.74s-.18-3.46-.56-4.89c-.37-1.45-.9-2.67-1.59-3.67-.69-1-1.53-1.77-2.53-2.3-.99-.53-2.11-.8-3.36-.8s-2.47.27-3.51.8c-1.05.53-1.94,1.29-2.68,2.27-.73.99-1.3,2.17-1.7,3.54-.4,1.39-.6,2.93-.6,4.64s.2,3.34.6,4.76c.4,1.43.97,2.65,1.72,3.68.74,1.02,1.62,1.81,2.68,2.35,1.05.55,2.21.82,3.5.82Z"/>
    <path class="cls-2" d="M776.03,481.07v-26.29h4.02l12.58,22.75v-22.75h2.77v26.29h-3.83l-12.77-22.75v22.75h-2.77Z"/>
    <path class="cls-2" d="M808.97,481.56c-.82,0-1.58-.05-2.3-.16-.72-.11-1.36-.26-1.94-.46-.57-.19-1.08-.39-1.55-.62l.57-2.38c.92.56,1.8.95,2.63,1.17.83.23,1.72.35,2.66.35.86,0,1.64-.12,2.35-.35.7-.24,1.31-.58,1.81-1.02.5-.45.89-.98,1.17-1.6.27-.63.4-1.32.4-2.1,0-.58-.08-1.11-.22-1.57-.14-.47-.38-.91-.72-1.33-.33-.42-.77-.83-1.33-1.23-.56-.41-1.25-.84-2.09-1.3l-1.89-1.04c-.93-.51-1.73-1.02-2.39-1.54-.66-.52-1.2-1.07-1.62-1.65-.43-.58-.74-1.19-.94-1.83-.2-.64-.29-1.34-.29-2.09,0-1.02.19-1.92.57-2.73.38-.8.93-1.48,1.64-2.03.72-.55,1.59-.98,2.62-1.27,1.03-.3,2.2-.45,3.51-.45,1,0,1.99.1,3,.28,1.01.19,1.91.45,2.69.79l-.55,2.27c-.92-.44-1.77-.76-2.55-.98-.79-.22-1.63-.33-2.52-.33-.79,0-1.51.1-2.17.31-.65.2-1.22.49-1.67.87-.46.37-.82.82-1.07,1.35-.25.53-.38,1.11-.38,1.75,0,.68.13,1.27.38,1.78.25.51.59.97,1,1.38.42.4.88.77,1.39,1.09.51.32,1.03.63,1.56.92l1.89,1.09c1.39.81,2.46,1.55,3.21,2.22.75.67,1.3,1.43,1.65,2.28.36.86.54,1.75.54,2.68,0,1.17-.2,2.22-.62,3.14-.41.92-1.01,1.7-1.78,2.34-.78.64-1.72,1.12-2.84,1.46-1.11.34-2.38.51-3.79.51Z"/>
    <path class="cls-2" d="M836.37,481.07v-26.29h6.67c1.14,0,2.15.05,2.99.15.86.11,1.63.32,2.33.64.7.32,1.27.72,1.71,1.19.67.73,1.15,1.55,1.43,2.47.28.92.42,1.87.42,2.86,0,1.17-.17,2.26-.53,3.25-.35.99-.82,1.8-1.41,2.43-.6.62-1.23,1.12-1.89,1.5-.95.55-1.99.91-3.11,1.1-1.13.19-2.35.28-3.68.28h-1.75v10.42h-3.2ZM839.57,468.45h2.13c.82,0,1.58-.06,2.27-.18.7-.12,1.28-.31,1.78-.56.49-.25.91-.55,1.24-.89.6-.64,1.03-1.37,1.3-2.18.28-.81.41-1.65.41-2.51,0-.62-.06-1.24-.2-1.85-.13-.62-.38-1.18-.73-1.69-.43-.59-1.04-1.03-1.81-1.31-.77-.28-1.54-.43-2.31-.45-.76-.02-1.4-.03-1.92-.03h-2.16v11.65Z"/>
    <path class="cls-2" d="M863.05,481.07l-6.64-18.98h3.24l5.48,16.78,5.03-16.78h2.71l-6.05,18.98h-3.76Z"/>
    <path class="cls-2" d="M883.95,481.29c-.75,0-1.42-.1-2-.29-.59-.2-1.04-.48-1.35-.86-.44-.49-.74-1.09-.89-1.82-.16-.73-.23-1.76-.23-3.11v-11.27h-3v-1.85h3v-5l3.12-.6v5.6h3.87v1.85h-3.87v9.8c0,1.54.03,2.58.09,3.14.06.55.17.99.35,1.33.18.33.42.58.75.76.32.17.75.26,1.28.26.14,0,.3-.02.48-.05.2-.04.34-.07.46-.1.12-.03.18-.04.21-.04l.07.2c.04.13.09.3.16.49.06.19.12.4.19.61.06.22.11.41.15.57-.45.14-.91.25-1.37.31-.46.06-.95.09-1.46.09Z"/>
    <path class="cls-2" d="M892.4,481.07v-3.35h3.38v3.35h-3.38Z"/>
    <path class="cls-2" d="M915.35,481.07v-26.29h3.24v24.2h10.98v2.09h-14.23Z"/>
    <path class="cls-2" d="M940.83,481.29c-.75,0-1.42-.1-2-.29-.58-.2-1.03-.48-1.35-.86-.43-.49-.73-1.09-.9-1.82-.15-.73-.23-1.76-.23-3.11v-11.27h-3v-1.85h3v-5l3.13-.6v5.6h3.87v1.85h-3.87v9.8c0,1.54.03,2.58.09,3.14.07.55.18.99.35,1.33.18.33.43.58.75.76.32.17.75.26,1.28.26.13,0,.29-.02.48-.05.19-.04.34-.07.46-.1.12-.03.19-.04.21-.04l.07.2c.04.13.08.3.16.49.07.19.13.4.19.61.06.22.11.41.14.57-.44.14-.9.25-1.37.31-.46.06-.96.09-1.46.09Z"/>
    <path class="cls-2" d="M956.14,481.29c-1.14,0-2.17-.22-3.09-.65-.93-.43-1.71-1.04-2.37-1.84-.65-.79-1.15-1.75-1.51-2.88-.35-1.13-.53-2.39-.53-3.8,0-1.58.25-3.03.74-4.32.49-1.3,1.21-2.38,2.14-3.26.74-.73,1.58-1.28,2.51-1.65.93-.36,1.87-.61,2.83-.72.95-.12,1.79-.17,2.52-.17.82,0,1.57.04,2.23.13v-9.09l3.13-.56v28.6h-3.13v-2.16c-.71.83-1.51,1.44-2.37,1.82-.87.37-1.9.56-3.1.56ZM957.14,479.09c.63,0,1.24-.1,1.82-.32.58-.21,1.09-.5,1.53-.86.44-.36.81-.71,1.13-1.05v-12.78c-.84-.07-1.46-.11-1.85-.11-2.65,0-4.63.66-5.96,1.97-1.33,1.32-1.99,3.29-1.99,5.92,0,1.09.13,2.08.38,2.97.26.89.62,1.65,1.09,2.28.46.62,1.03,1.11,1.68,1.45.66.34,1.38.52,2.18.52Z"/>
    <path class="cls-2" d="M972.94,481.07v-3.35h3.39v3.35h-3.39Z"/>
  </g>
</svg>