<?xml version="1.0" encoding="UTF-8"?>
<svg id="Layer_1" data-name="Layer 1" xmlns="http://www.w3.org/2000/svg" viewBox="0 0 841.89 595.28">
  <defs>
    <style>
      .cls-1 {
        fill: #024e66;
      }

      .cls-1, .cls-2, .cls-3, .cls-4 {
        stroke-width: 0px;
      }

      .cls-2 {
        fill: #666;
      }

      .cls-3 {
        fill: #012f3a;
      }

      .cls-4 {
        fill: #fff;
      }
    </style>
  </defs>
  <g>
    <g>
      <path class="cls-3" d="M175.65,224.03v8.48c2.58.15,4.51.74,4.51,1.45,0,.09-.04.18-.1.27,1,.3,1.63.68,1.75,1.11h1c.94,0,1.7.89,1.7,2,0,.71-.32,1.33-.8,1.68h.78c.57,0,1.09.24,1.46.62.34.36.56.85.56,1.39,0,.72-.38,1.34-.96,1.7,1.19.03,2.13.91,2.13,1.99,0,.79-.51,1.46-1.24,1.79.91.26,1.58,1.01,1.58,1.9,0,.09-.01.19-.03.28,2.04,1.34,3.61,3.07,4.72,5.21,2.26,4.36,3.42,12.53,3.49,24.49,2.03,4.04,3.71,8.58,4.27,14.38.02.11.03.24.05.36.01.15.02.3.03.46.03.31.05.62.06.93.01.3.04.6.05.9,0,.04-.02.07-.04.09-.13,11.31-9.4,20.68-21.6,22.62-1.53.25-3.12.38-4.73.38s-3.19-.13-4.72-.38c-12.31-1.95-21.63-11.45-21.63-22.87,0-1.2.1-2.39.31-3.54.51-4.09,1.57-7.54,2.91-10.64,0-.54,0-1.08,0-1.63,0-12.44,1.16-20.95,3.49-25.55,1.21-2.42,3.03-4.33,5.46-5.73.1-.78.73-1.42,1.57-1.66-.74-.33-1.25-1-1.25-1.79,0-1.08.95-1.96,2.13-1.99-.57-.36-.96-.98-.96-1.7,0-.54.22-1.03.56-1.39.38-.38.89-.62,1.47-.62h.77c-.47-.35-.79-.97-.79-1.68,0-1.11.76-2,1.7-2h1.67c.11-.43.75-.81,1.74-1.11-.06-.09-.09-.18-.09-.27,0-.69,1.84-1.28,4.33-1.44v-8.51c-32.51.24-48.76,18.72-48.76,55.44s16.46,55.44,49.4,55.44,49.58-18.48,49.58-55.44-15.84-54.66-47.52-55.42Z"/>
      <path class="cls-3" d="M292.08,227h-48.39c-6.65,0-9.97,2.67-9.97,7.99v88.14c0,5.64,3.32,8.46,9.96,8.46h7.15c5.98,0,8.97-2.82,8.97-8.46v-36.64c16.3.33,26.01.5,29.11.5,5.99,0,8.98-2.99,8.98-8.95v-2.04c0-5.96-2.99-8.94-8.98-8.94h-29.11v-19.56c17.64.31,28.39.46,32.27.46,6.1,0,9.15-2.97,9.15-8.91v-4.07c0-5.32-3.05-7.98-9.14-7.98Z"/>
      <path class="cls-3" d="M367.75,227h-48.38c-6.65,0-9.98,2.67-9.98,7.99v88.14c0,5.64,3.33,8.46,9.97,8.46h7.15c5.98,0,8.97-2.82,8.97-8.46v-36.64c16.3.33,26.01.5,29.11.5,5.99,0,8.98-2.99,8.98-8.95v-2.04c0-5.96-2.99-8.94-8.98-8.94h-29.11v-19.56c17.63.31,28.39.46,32.27.46,6.1,0,9.15-2.97,9.15-8.91v-4.07c0-5.32-3.05-7.98-9.15-7.98Z"/>
      <path class="cls-1" d="M453.39,274.62c4.73-4.48,7.09-11,7.09-19.56,0-16.9-7.86-26.08-23.59-27.54-3.43-.34-9.75-.52-18.94-.52h-21.6c-6.64,0-9.97,2.67-9.97,7.99v88.14c0,5.64,3.33,8.46,9.98,8.46h31.92c12.63,0,21.94-2.35,27.93-7.05,6.65-5,9.97-13.3,9.97-24.88,0-12.41-4.26-20.76-12.79-25.04ZM412.47,247.4c2.88-.11,6.42-.16,10.63-.16,4.42,0,6.91.05,7.47.16,3.21.62,4.81,3.74,4.81,9.35,0,4.99-.72,8.47-2.16,10.45-1.44,1.97-6.03,2.96-13.78,2.96h-6.97v-22.76ZM433.73,310.57c-2.66.52-6.37.78-11.13.78s-8.03-.05-10.13-.15v-21.74h7.97c7.42,0,11.9.21,13.45.63,4.21,1.25,6.31,4.43,6.31,9.54,0,6.46-2.15,10.11-6.47,10.94Z"/>
      <path class="cls-1" d="M535.08,247.96c5.99,0,8.99-2.97,8.99-8.91v-4.07c0-5.32-3-7.98-8.98-7.98h-51.71c-6.65,0-9.98,2.67-9.98,7.99v88.14c0,5.64,3.33,8.46,9.98,8.46h51.71c5.98,0,8.98-2.66,8.98-7.98v-4.07c0-5.94-3-8.91-8.99-8.91l-35.59.44v-24.58c17.63.33,28.22.5,31.77.5,6.1,0,9.15-2.99,9.15-8.95v-2.04c0-5.96-3.05-8.94-9.15-8.94l-31.77.48v-20.04c19.62.31,31.49.46,35.59.46Z"/>
      <path class="cls-1" d="M649.99,322.35l-36.07-88.16c-2.11-5.2-5.99-7.81-11.64-7.81h-6.82c-5.66,0-9.53,2.66-11.64,7.96l-34.25,86.6c-1,2.51-1.5,4.23-1.5,5.16,0,3.66,2.83,5.49,8.49,5.49h7.65c5,0,8.43-2.51,10.32-7.51l4.44-11.81c4.22,0,10.88,0,19.99,0,8,0,14.67,0,20-.02l5.26,12.85c1.65,4.32,4.85,6.48,9.58,6.48h9.09c5.18,0,7.77-2.09,7.77-6.27,0-.93-.22-1.92-.67-2.97ZM605.33,293.59c-4.18-.1-8.58-.1-13.19,0h-3.63c-1.21,0-1.98.03-2.31.08l12.61-34.53,12.78,34.45h-6.26Z"/>
      <path class="cls-1" d="M709.91,227h-71.66c-5.98,0-8.98,2.63-8.98,7.86v4.01c0,5.85,3,8.78,8.99,8.78h22.8v75.48c0,5.64,3.32,8.46,9.97,8.46h7.15c5.98,0,8.97-2.82,8.97-8.46v-75.48h22.77c5.98,0,8.97-2.93,8.97-8.78v-4.01c0-5.23-2.99-7.86-8.98-7.86Z"/>
    </g>
    <path class="cls-3" d="M185.25,281.58c-2.43-1.95-4.86-3.9-7.29-5.86-1.31,2.27-2.61,4.54-3.92,6.81-1.49-2.14-2.98-4.28-4.47-6.42-1.51,1.11-3.07,2.32-4.65,3.63-.98.81-1.92,1.61-2.82,2.41l6.66-23.89,1.96.55s-3.58,12.86-4.86,17.45c1.39-.96,2.79-1.92,4.18-2.88,1.22,1.63,2.44,3.27,3.66,4.9,1.35-1.73,2.7-3.46,4.04-5.19,1.35,1.16,2.69,2.32,4.03,3.49-1.27-4.45-4.89-17.85-4.89-17.85l1.99-.39,6.38,23.24Z"/>
    <path class="cls-3" d="M169.57,318.13h-23.57v-78.49h16.15c-.34.36-.56.85-.56,1.39,0,.72.39,1.34.96,1.7-1.18.03-2.13.91-2.13,1.99,0,.79.51,1.46,1.25,1.79-.84.24-1.47.88-1.57,1.66,0,.08-.02.16-.02.24,0,.83.58,1.54,1.39,1.84-.81.31-1.39,1.02-1.39,1.85s.58,1.54,1.39,1.84c-.81.31-1.39,1.02-1.39,1.85,0,1.05.93,1.9,2.1,1.99-1.79,8.99-7.41,14.86-11.02,23.3-1.34,3.1-2.4,6.55-2.91,10.64-.21,1.15-.31,2.34-.31,3.54,0,11.42,9.32,20.92,21.63,22.87Z"/>
    <path class="cls-3" d="M201.25,239.64v78.49h-22.23c12.2-1.94,21.47-11.31,21.6-22.62.02-.02.04-.05.04-.09,0-.3-.04-.6-.05-.9-.01-.31-.03-.62-.06-.93-.01-.16-.02-.31-.03-.46-.02-.12-.03-.25-.05-.36-.56-5.8-2.24-10.34-4.27-14.38-3.57-7.1-8.22-12.64-9.79-20.69.93-.25,1.61-1.01,1.61-1.91,0-.83-.57-1.54-1.39-1.85.82-.3,1.39-1.01,1.39-1.84s-.57-1.54-1.39-1.85c.73-.27,1.26-.85,1.36-1.56.02-.09.03-.19.03-.28,0-.89-.67-1.64-1.58-1.9.73-.33,1.24-1,1.24-1.79,0-1.08-.94-1.96-2.13-1.99.58-.36.96-.98.96-1.7,0-.54-.22-1.03-.56-1.39h15.3Z"/>
    <path class="cls-4" d="M185.25,281.58c-2.43-1.95-4.86-3.9-7.29-5.86-1.31,2.27-2.61,4.54-3.92,6.81-1.49-2.14-2.98-4.28-4.47-6.42-1.51,1.11-3.07,2.32-4.65,3.63-.98.81-1.92,1.61-2.82,2.41l6.66-23.89,1.96.55s-3.58,12.86-4.86,17.45c1.39-.96,2.79-1.92,4.18-2.88,1.22,1.63,2.44,3.27,3.66,4.9,1.35-1.73,2.7-3.46,4.04-5.19,1.35,1.16,2.69,2.32,4.03,3.49-1.27-4.45-4.89-17.85-4.89-17.85l1.99-.39,6.38,23.24Z"/>
    <path class="cls-3" d="M185.25,281.58c-2.43-1.95-4.86-3.9-7.29-5.86-1.31,2.27-2.61,4.54-3.92,6.81-1.49-2.14-2.98-4.28-4.47-6.42-1.51,1.11-3.07,2.32-4.65,3.63-.98.81-1.92,1.61-2.82,2.41l6.66-23.89,1.96.55s-3.58,12.86-4.86,17.45c1.39-.96,2.79-1.92,4.18-2.88,1.22,1.63,2.44,3.27,3.66,4.9,1.35-1.73,2.7-3.46,4.04-5.19,1.35,1.16,2.69,2.32,4.03,3.49-1.27-4.45-4.89-17.85-4.89-17.85l1.99-.39,6.38,23.24Z"/>
  </g>
  <g>
    <path class="cls-2" d="M283.8,375.98c-.63,0-1.22-.04-1.78-.13-.56-.08-1.06-.2-1.5-.35-.44-.15-.84-.3-1.2-.48l.43-1.84c.71.43,1.39.73,2.03.91.64.18,1.33.27,2.06.27.67,0,1.27-.09,1.82-.27.54-.18,1.01-.45,1.4-.79.39-.34.69-.76.9-1.24.21-.49.31-1.02.31-1.62,0-.45-.05-.86-.17-1.21-.11-.36-.3-.7-.56-1.03-.26-.32-.6-.64-1.03-.95-.43-.31-.97-.65-1.62-1l-1.46-.81c-.72-.39-1.34-.79-1.85-1.19-.51-.4-.93-.83-1.26-1.27-.33-.45-.57-.92-.72-1.41-.15-.5-.23-1.03-.23-1.62,0-.79.15-1.49.44-2.11.29-.62.72-1.14,1.27-1.57.55-.43,1.23-.76,2.03-.99.79-.23,1.7-.35,2.71-.35.77,0,1.54.08,2.32.22.78.15,1.47.35,2.08.61l-.42,1.76c-.71-.34-1.37-.59-1.98-.76-.6-.17-1.25-.25-1.95-.25-.61,0-1.17.08-1.67.24-.5.15-.94.38-1.29.67-.35.29-.63.64-.83,1.05-.2.41-.29.86-.29,1.36,0,.52.1.98.29,1.38.2.39.46.75.77,1.06.32.31.68.59,1.08.84.4.25.8.49,1.2.71l1.46.84c1.08.63,1.9,1.2,2.48,1.71.58.52,1,1.1,1.28,1.77.27.66.41,1.35.41,2.07,0,.91-.16,1.72-.48,2.43-.32.71-.78,1.32-1.38,1.81-.6.5-1.33.87-2.19,1.13-.86.26-1.84.39-2.94.39Z"/>
    <path class="cls-2" d="M304.49,375.95c-1.39,0-2.63-.24-3.73-.72-1.1-.49-2.03-1.19-2.8-2.1-.76-.91-1.35-2.03-1.75-3.33-.4-1.31-.6-2.79-.6-4.45s.21-3.06.64-4.35c.43-1.29,1.04-2.38,1.83-3.28.8-.9,1.77-1.59,2.91-2.07,1.14-.48,2.43-.72,3.85-.72s2.59.24,3.66.71c1.07.47,1.98,1.16,2.73,2.06.75.9,1.32,2,1.71,3.3.39,1.3.59,2.78.59,4.43s-.2,3.18-.6,4.49c-.4,1.3-.98,2.4-1.75,3.3-.77.89-1.71,1.57-2.84,2.03-1.12.47-2.41.7-3.85.7ZM304.76,374.27c.97,0,1.85-.19,2.61-.58.77-.39,1.42-.95,1.95-1.7.54-.74.94-1.65,1.23-2.72.28-1.07.42-2.29.42-3.66s-.14-2.67-.43-3.78c-.29-1.12-.7-2.06-1.23-2.83-.53-.77-1.18-1.37-1.95-1.78-.77-.41-1.63-.62-2.6-.62s-1.91.21-2.72.62c-.81.41-1.5,1-2.06,1.76-.57.76-1,1.67-1.31,2.74-.31,1.07-.46,2.26-.46,3.59s.16,2.58.46,3.68c.31,1.11.75,2.05,1.32,2.84.57.79,1.26,1.4,2.08,1.82.81.42,1.71.64,2.7.64Z"/>
    <path class="cls-2" d="M319.85,375.59v-20.32h10.88v1.61h-8.41v7.51h7.43v1.62h-7.43v9.58h-2.47Z"/>
    <path class="cls-2" d="M341.13,375.59v-18.71h-5.62v-1.61h13.65v1.61h-5.55v18.71h-2.47Z"/>
    <path class="cls-2" d="M357.79,375.59l-4.89-20.32h2.5c.7,3.1,1.41,6.18,2.1,9.23.69,3.05,1.38,6.13,2.05,9.23.65-3.1,1.34-6.18,2.07-9.24.74-3.05,1.49-6.13,2.25-9.22h3.11c1.86,8.08,3.29,14.23,4.29,18.46.41-1.87,1.85-8.02,4.31-18.46h2.14l-5.07,20.32h-3.14c-.37-1.63-.7-3.05-.98-4.25-.28-1.21-.52-2.25-.72-3.13-.21-.88-.38-1.62-.52-2.23-.14-.61-.26-1.13-.36-1.56-.1-.42-.18-.79-.25-1.09-.07-.3-.14-.58-.2-.85-.06-.27-.12-.55-.18-.84-.06-.29-.14-.63-.23-1.04-.09-.4-.2-.89-.32-1.45-.12-.57-.28-1.27-.47-2.1-1.92,8.07-3.41,14.25-4.47,18.54h-3.02Z"/>
    <path class="cls-2" d="M378,375.59l6.62-20.32h3.2l6.5,20.32h-2.5l-2.01-6.59h-7.55l-2.01,6.59h-2.25ZM382.7,367.41h6.65l-3.27-10.77-3.37,10.77Z"/>
    <path class="cls-2" d="M399.23,375.59v-20.32h6.04c.59,0,1.2.03,1.82.09.62.06,1.19.22,1.73.48.62.31,1.13.74,1.52,1.3.4.56.67,1.12.8,1.7.14.58.2,1.09.2,1.55,0,1.1-.24,2.05-.74,2.86-.49.8-1.11,1.4-1.84,1.78-.73.38-1.46.64-2.17.78l5.79,9.78h-2.83l-5.35-9.36h-2.5v9.36h-2.47ZM401.7,364.69h1.76c.69,0,1.37-.07,2.02-.21.65-.14,1.23-.36,1.73-.69.5-.32.9-.75,1.21-1.29.3-.53.46-1.2.46-2,0-.4-.04-.78-.12-1.14-.09-.36-.2-.67-.35-.92-.15-.27-.3-.48-.47-.65-.43-.4-.94-.67-1.54-.78-.6-.13-1.32-.18-2.16-.18h-2.53v7.86Z"/>
    <path class="cls-2" d="M416.45,375.59v-20.32h10.93v1.61h-8.46v7.34h7.92v1.56h-7.92v8.19h8.62v1.62h-11.09Z"/>
    <path class="cls-2" d="M445.21,375.98c-.63,0-1.22-.04-1.78-.13-.56-.08-1.06-.2-1.5-.35-.44-.15-.84-.3-1.2-.48l.44-1.84c.71.43,1.39.73,2.03.91.64.18,1.33.27,2.06.27.66,0,1.27-.09,1.81-.27.54-.18,1.01-.45,1.39-.79.39-.34.69-.76.9-1.24.21-.49.32-1.02.32-1.62,0-.45-.06-.86-.17-1.21-.11-.36-.3-.7-.56-1.03-.26-.32-.6-.64-1.03-.95-.44-.31-.97-.65-1.62-1l-1.46-.81c-.72-.39-1.34-.79-1.85-1.19-.51-.4-.93-.83-1.26-1.27-.33-.45-.57-.92-.73-1.41-.15-.5-.23-1.03-.23-1.62,0-.79.15-1.49.44-2.11.29-.62.72-1.14,1.27-1.57.56-.43,1.23-.76,2.02-.99.8-.23,1.7-.35,2.72-.35.77,0,1.54.08,2.32.22.77.15,1.47.35,2.08.61l-.42,1.76c-.71-.34-1.37-.59-1.98-.76-.6-.17-1.25-.25-1.95-.25-.61,0-1.16.08-1.67.24-.51.15-.94.38-1.29.67-.36.29-.63.64-.83,1.05-.2.41-.29.86-.29,1.36,0,.52.1.98.29,1.38.2.39.45.75.77,1.06.32.31.67.59,1.08.84.4.25.8.49,1.2.71l1.46.84c1.08.63,1.9,1.2,2.48,1.71.58.52,1,1.1,1.28,1.77.28.66.41,1.35.41,2.07,0,.91-.15,1.72-.48,2.43-.32.71-.78,1.32-1.38,1.81-.6.5-1.33.87-2.19,1.13-.87.26-1.84.39-2.94.39Z"/>
    <path class="cls-2" d="M464.75,375.95c-1.39,0-2.63-.24-3.73-.72-1.1-.49-2.04-1.19-2.8-2.1-.77-.91-1.35-2.03-1.75-3.33-.4-1.31-.6-2.79-.6-4.45s.21-3.06.64-4.35c.43-1.29,1.04-2.38,1.83-3.28.8-.9,1.77-1.59,2.91-2.07,1.14-.48,2.43-.72,3.85-.72s2.59.24,3.66.71c1.07.47,1.98,1.16,2.73,2.06.74.9,1.31,2,1.71,3.3.39,1.3.59,2.78.59,4.43s-.2,3.18-.6,4.49c-.4,1.3-.98,2.4-1.75,3.3-.77.89-1.71,1.57-2.84,2.03-1.12.47-2.4.7-3.85.7ZM465.02,374.27c.98,0,1.84-.19,2.61-.58.77-.39,1.42-.95,1.96-1.7.54-.74.94-1.65,1.22-2.72.28-1.07.42-2.29.42-3.66s-.14-2.67-.43-3.78c-.29-1.12-.7-2.06-1.23-2.83-.54-.77-1.19-1.37-1.95-1.78-.77-.41-1.63-.62-2.6-.62s-1.9.21-2.72.62c-.81.41-1.5,1-2.07,1.76-.57.76-1.01,1.67-1.32,2.74-.31,1.07-.46,2.26-.46,3.59s.15,2.58.46,3.68c.31,1.11.75,2.05,1.32,2.84.57.79,1.26,1.4,2.07,1.82.81.42,1.71.64,2.71.64Z"/>
    <path class="cls-2" d="M479.53,375.59v-20.32h2.5v18.71h8.5v1.62h-11Z"/>
    <path class="cls-2" d="M501.42,375.95c-1.52,0-2.77-.24-3.75-.72-.98-.49-1.73-1.23-2.27-2.25-.35-.65-.6-1.43-.75-2.33-.16-.9-.23-2.01-.23-3.35v-12.03h2.5v12.12c0,.89.04,1.65.11,2.28.08.64.2,1.21.35,1.72.3.94.83,1.66,1.59,2.16.75.5,1.68.75,2.79.75.77,0,1.47-.14,2.1-.41.63-.27,1.14-.66,1.53-1.15.32-.41.57-.91.75-1.5.18-.59.31-1.24.36-1.95.07-.71.09-1.42.09-2.16v-11.86h2.16v11.92c0,1.32-.04,2.39-.14,3.22-.1.83-.33,1.58-.68,2.26-.36.68-.8,1.24-1.33,1.69-.61.54-1.35.93-2.21,1.2-.87.26-1.86.39-2.96.39Z"/>
    <path class="cls-2" d="M519.27,375.59v-18.71h-5.62v-1.61h13.65v1.61h-5.56v18.71h-2.48Z"/>
    <path class="cls-2" d="M532.19,375.59v-20.32h2.47v20.32h-2.47Z"/>
    <path class="cls-2" d="M548.71,375.95c-1.39,0-2.63-.24-3.73-.72-1.1-.49-2.03-1.19-2.8-2.1-.76-.91-1.34-2.03-1.75-3.33-.4-1.31-.61-2.79-.61-4.45s.22-3.06.64-4.35c.43-1.29,1.04-2.38,1.84-3.28.79-.9,1.77-1.59,2.91-2.07,1.14-.48,2.43-.72,3.85-.72s2.59.24,3.67.71c1.07.47,1.98,1.16,2.72,2.06.75.9,1.32,2,1.71,3.3.39,1.3.59,2.78.59,4.43s-.2,3.18-.6,4.49c-.4,1.3-.98,2.4-1.75,3.3-.77.89-1.72,1.57-2.84,2.03-1.13.47-2.41.7-3.85.7ZM548.98,374.27c.97,0,1.85-.19,2.61-.58.77-.39,1.42-.95,1.96-1.7.53-.74.94-1.65,1.22-2.72.28-1.07.42-2.29.42-3.66s-.14-2.67-.43-3.78c-.29-1.12-.7-2.06-1.23-2.83-.53-.77-1.18-1.37-1.96-1.78-.76-.41-1.63-.62-2.6-.62s-1.91.21-2.72.62c-.82.41-1.5,1-2.07,1.76-.57.76-1,1.67-1.31,2.74-.31,1.07-.47,2.26-.47,3.59s.16,2.58.47,3.68c.31,1.11.75,2.05,1.33,2.84.57.79,1.25,1.4,2.07,1.82.81.42,1.71.64,2.7.64Z"/>
    <path class="cls-2" d="M564.06,375.59v-20.32h3.11l9.72,17.58v-17.58h2.14v20.32h-2.96l-9.87-17.58v17.58h-2.14Z"/>
    <path class="cls-2" d="M589.53,375.98c-.63,0-1.22-.04-1.78-.13-.56-.08-1.05-.2-1.5-.35-.44-.15-.84-.3-1.2-.48l.44-1.84c.71.43,1.39.73,2.03.91.64.18,1.33.27,2.05.27.67,0,1.27-.09,1.82-.27.54-.18,1.01-.45,1.4-.79.39-.34.69-.76.9-1.24.21-.49.31-1.02.31-1.62,0-.45-.06-.86-.17-1.21-.11-.36-.29-.7-.56-1.03-.25-.32-.6-.64-1.03-.95-.43-.31-.97-.65-1.62-1l-1.46-.81c-.72-.39-1.34-.79-1.85-1.19-.51-.4-.93-.83-1.25-1.27-.33-.45-.57-.92-.73-1.41-.15-.5-.23-1.03-.23-1.62,0-.79.14-1.49.44-2.11.29-.62.72-1.14,1.27-1.57.55-.43,1.23-.76,2.03-.99.79-.23,1.7-.35,2.71-.35.77,0,1.54.08,2.32.22.78.15,1.47.35,2.08.61l-.42,1.76c-.71-.34-1.37-.59-1.97-.76-.61-.17-1.26-.25-1.95-.25-.61,0-1.17.08-1.67.24-.5.15-.94.38-1.29.67-.36.29-.63.64-.83,1.05-.2.41-.29.86-.29,1.36,0,.52.1.98.29,1.38.2.39.45.75.77,1.06.32.31.68.59,1.08.84.4.25.8.49,1.21.71l1.46.84c1.08.63,1.9,1.2,2.48,1.71.58.52,1,1.1,1.28,1.77.28.66.42,1.35.42,2.07,0,.91-.16,1.72-.48,2.43-.32.71-.78,1.32-1.38,1.81-.6.5-1.33.87-2.2,1.13-.86.26-1.84.39-2.93.39Z"/>
    <path class="cls-2" d="M610.71,375.59v-20.32h5.16c.88,0,1.66.04,2.31.12.66.08,1.26.25,1.8.5.54.25.98.56,1.33.92.52.56.89,1.2,1.11,1.91.22.71.33,1.45.33,2.21,0,.91-.13,1.75-.41,2.51-.27.77-.63,1.39-1.09,1.88-.46.48-.95.87-1.46,1.16-.73.42-1.54.7-2.41.85-.87.15-1.82.22-2.84.22h-1.35v8.05h-2.47ZM613.18,365.84h1.65c.64,0,1.22-.05,1.75-.14.54-.09.99-.24,1.37-.44.38-.2.7-.43.96-.69.46-.49.8-1.06,1.01-1.69.21-.62.32-1.27.32-1.94,0-.48-.05-.96-.15-1.43-.1-.48-.29-.92-.56-1.31-.34-.46-.81-.8-1.4-1.01-.59-.22-1.19-.33-1.79-.34-.59-.02-1.09-.02-1.48-.02h-1.67v9.01Z"/>
    <path class="cls-2" d="M631.33,375.59l-5.13-14.67h2.5l4.23,12.97,3.89-12.97h2.09l-4.68,14.67h-2.91Z"/>
    <path class="cls-2" d="M647.48,375.76c-.58,0-1.1-.07-1.54-.22-.45-.15-.8-.37-1.04-.66-.34-.38-.57-.84-.69-1.41-.12-.56-.18-1.36-.18-2.41v-8.71h-2.32v-1.43h2.32v-3.87l2.41-.46v4.33h2.99v1.43h-2.99v7.58c0,1.19.02,2,.07,2.42.04.43.13.77.27,1.02.14.26.33.45.58.58.25.13.58.2.99.2.11,0,.23-.01.37-.04.15-.03.26-.06.36-.08.09-.02.14-.03.16-.03l.05.16c.03.1.07.23.13.38.04.15.1.31.14.47.05.17.08.31.11.44-.35.11-.7.19-1.06.24-.36.04-.74.07-1.13.07Z"/>
    <path class="cls-2" d="M654.02,375.59v-2.59h2.61v2.59h-2.61Z"/>
    <path class="cls-2" d="M671.76,375.59v-20.32h2.5v18.71h8.49v1.62h-11Z"/>
    <path class="cls-2" d="M691.45,375.76c-.58,0-1.1-.07-1.55-.22-.45-.15-.8-.37-1.04-.66-.34-.38-.57-.84-.69-1.41-.12-.56-.18-1.36-.18-2.41v-8.71h-2.32v-1.43h2.32v-3.87l2.42-.46v4.33h2.99v1.43h-2.99v7.58c0,1.19.02,2,.07,2.42.05.43.14.77.27,1.02.14.26.33.45.58.58.25.13.58.2.99.2.1,0,.22-.01.37-.04.15-.03.27-.06.35-.08.09-.02.14-.03.16-.03l.05.16c.03.1.07.23.12.38.05.15.1.31.15.47.04.17.09.31.11.44-.34.11-.7.19-1.06.24-.36.04-.74.07-1.13.07Z"/>
    <path class="cls-2" d="M703.29,375.76c-.88,0-1.68-.17-2.39-.5-.72-.33-1.33-.8-1.83-1.42-.5-.61-.89-1.35-1.16-2.23-.27-.87-.41-1.85-.41-2.94,0-1.22.2-2.34.57-3.34.38-1,.93-1.84,1.65-2.52.57-.56,1.22-.99,1.94-1.28.72-.28,1.45-.47,2.19-.56.74-.09,1.38-.13,1.95-.13.63,0,1.21.03,1.73.1v-7.03l2.42-.44v22.11h-2.42v-1.67c-.55.64-1.16,1.12-1.83,1.4-.67.29-1.47.44-2.4.44ZM704.06,374.06c.49,0,.96-.08,1.4-.25.45-.16.85-.39,1.18-.66.34-.27.62-.54.87-.81v-9.88c-.65-.06-1.13-.08-1.43-.08-2.05,0-3.58.51-4.6,1.52-1.02,1.02-1.54,2.54-1.54,4.58,0,.84.1,1.61.29,2.3.2.69.48,1.27.84,1.76.36.48.79.86,1.3,1.12.51.26,1.07.4,1.69.4Z"/>
    <path class="cls-2" d="M716.27,375.59v-2.59h2.62v2.59h-2.62Z"/>
  </g>
</svg>